<svg xmlns="http://www.w3.org/2000/svg" width="20.918" height="17" viewBox="0 0 20.918 17">
  <path id="brand_Twitter" data-name="brand / Twitter" d="M18.454,2.688A4.3,4.3,0,0,0,20.341.314a8.591,8.591,0,0,1-2.725,1.041A4.3,4.3,0,0,0,10.3,5.27,12.184,12.184,0,0,1,1.456.786a4.3,4.3,0,0,0,1.328,5.73A4.276,4.276,0,0,1,.841,5.978c0,.018,0,.036,0,.054a4.294,4.294,0,0,0,3.443,4.208,4.3,4.3,0,0,1-1.938.074,4.3,4.3,0,0,0,4.009,2.98,8.61,8.61,0,0,1-5.33,1.837A8.715,8.715,0,0,1,0,15.072,12.147,12.147,0,0,0,6.579,17,12.127,12.127,0,0,0,18.789,4.789q0-.279-.013-.555a8.719,8.719,0,0,0,2.142-2.222A8.579,8.579,0,0,1,18.454,2.688Z" fill="#65aae9"/>
</svg>
